<svg xmlns="http://www.w3.org/2000/svg" width="200" height="200" viewBox="0 0 200 200"><circle cx="100" cy="100" r="85" fill="#fff"/><circle cx="100" cy="100" r="75" fill="#333"/><g fill="#fff"><rect x="75" y="45" width="20" height="20" rx="3" ry="3"/><rect x="105" y="45" width="20" height="20" rx="3" ry="3"/><rect x="45" y="75" width="20" height="20" rx="3" ry="3"/><rect x="75" y="75" width="20" height="20" rx="3" ry="3"/><rect x="105" y="75" width="20" height="20" rx="3" ry="3"/><rect x="135" y="75" width="20" height="20" rx="3" ry="3"/><rect x="45" y="105" width="20" height="20" rx="3" ry="3"/><rect x="75" y="105" width="20" height="20" rx="3" ry="3"/><rect x="105" y="105" width="20" height="20" rx="3" ry="3"/><rect x="135" y="105" width="20" height="20" rx="3" ry="3"/><rect x="75" y="135" width="20" height="20" rx="3" ry="3"/><rect x="105" y="135" width="20" height="20" rx="3" ry="3"/></g></svg>